<svg width="40" height="40" fill="none" xmlns="http://www.w3.org/2000/svg"><path fill-rule="evenodd" clip-rule="evenodd" d="M20 40c11.046 0 20-8.954 20-20S31.046 0 20 0 0 8.954 0 20s8.954 20 20 20Z" fill="#262626"/><path fill-rule="evenodd" clip-rule="evenodd" d="M20 11.5c2.308 0 2.598.01 3.505.051.904.041 1.522.185 2.063.395a4.165 4.165 0 0 1 1.505.98c.473.473.764.947.98 1.506.21.54.355 1.159.396 2.063.041.907.051 1.197.051 3.505s-.01 2.598-.051 3.505c-.041.904-.185 1.522-.395 2.063a4.167 4.167 0 0 1-.98 1.505 4.167 4.167 0 0 1-1.506.98c-.54.21-1.159.355-2.064.396-.906.041-1.196.051-3.504.051s-2.598-.01-3.505-.051c-.904-.041-1.522-.185-2.063-.395a4.167 4.167 0 0 1-1.505-.98 4.165 4.165 0 0 1-.98-1.506c-.21-.54-.355-1.159-.396-2.064-.041-.906-.051-1.196-.051-3.504s.01-2.598.051-3.505c.041-.904.185-1.522.395-2.063a4.165 4.165 0 0 1 .98-1.505 4.165 4.165 0 0 1 1.506-.98c.54-.21 1.159-.355 2.063-.396.907-.041 1.197-.051 3.505-.051Zm-.003 11.33a2.833 2.833 0 1 0 0-5.665 2.833 2.833 0 0 0 0 5.665Zm0-7.196a4.363 4.363 0 1 1 0 8.727 4.363 4.363 0 0 1 0-8.727Zm5.859-.262a1.039 1.039 0 1 1-2.078 0 1.039 1.039 0 0 1 2.078 0Z" fill="#fff"/></svg>