<svg width="15" height="15" fill="none" xmlns="http://www.w3.org/2000/svg"><path fill-rule="evenodd" clip-rule="evenodd" d="M3.432 10.818A5.25 5.25 0 0 0 12.75 7.5h1.5a6.75 6.75 0 0 1-11.883 4.383l-.977.977a.375.375 0 0 1-.64-.265v-3.22C.75 9.168.918 9 1.125 9h3.22a.375.375 0 0 1 .265.64l-1.178 1.178Zm8.136-6.636A5.25 5.25 0 0 0 2.25 7.5H.75a6.75 6.75 0 0 1 11.883-4.383l.977-.977a.375.375 0 0 1 .64.265v3.22a.375.375 0 0 1-.375.375h-3.22a.375.375 0 0 1-.265-.64l1.178-1.178Z" fill="#BCBFC2"/></svg>