<svg width="163" height="40" fill="none" xmlns="http://www.w3.org/2000/svg"><path fill-rule="evenodd" clip-rule="evenodd" d="M20 40c11.046 0 20-8.954 20-20S31.046 0 20 0 0 8.954 0 20s8.954 20 20 20Z" fill="#4592FF"/><mask id="a" mask-type="alpha" maskUnits="userSpaceOnUse" x="0" y="0" width="40" height="40"><path fill-rule="evenodd" clip-rule="evenodd" d="M20 40c11.046 0 20-8.954 20-20S31.046 0 20 0 0 8.954 0 20s8.954 20 20 20Z" fill="#fff"/></mask><g mask="url(#a)" fill="#fff"><path d="M1.926 27.131c.643 0 1.217-.106 1.72-.32.512-.213.94-.513 1.287-.899.347-.385.61-.853.792-1.403.19-.55.285-1.166.285-1.847V12h3.33v10.662c0 1.059-.174 2.04-.52 2.943a6.633 6.633 0 0 1-1.473 2.327c-.636.648-1.411 1.157-2.327 1.526-.916.361-1.947.542-3.094.542-1.155 0-2.19-.18-3.107-.542a6.87 6.87 0 0 1-2.339-1.526 6.876 6.876 0 0 1-1.473-2.327c-.338-.903-.507-1.884-.507-2.943V12h3.33v10.65c0 .681.09 1.297.271 1.847.19.55.458 1.021.805 1.415.355.386.784.686 1.287.9.512.213 1.09.32 1.733.32ZM28.18 12v17.803h-1.707c-.264 0-.487-.041-.669-.123a1.652 1.652 0 0 1-.507-.443l-9.344-11.869c.05.542.074 1.042.074 1.502v10.933h-2.933V12h1.745c.14 0 .26.008.359.025a.663.663 0 0 1 .272.073c.082.033.16.087.235.16.074.066.157.157.248.271l9.38 11.918c-.024-.287-.044-.57-.061-.85-.016-.278-.025-.537-.025-.775V12h2.933ZM47.5 12l-7.228 17.803h-3.007L30.037 12h2.673c.29 0 .524.07.706.21.181.139.318.32.408.541l4.22 10.86c.14.352.273.742.397 1.169.132.418.255.857.37 1.317.1-.46.207-.899.323-1.317.115-.427.243-.817.383-1.17l4.196-10.859c.066-.189.194-.361.383-.517.199-.156.438-.234.718-.234H47.5Z"/></g><path d="M57.266 12.25v2.115l-1.88.36v9.134c0 1.154.31 2.019.928 2.596.627.569 1.482.853 2.566.853 1.101 0 1.964-.284 2.591-.853.627-.57.94-1.434.94-2.596v-9.134l-1.868-.36V12.25h7.266v2.115l-1.88.36v9.134c0 1.963-.65 3.477-1.952 4.543C62.684 29.467 60.985 30 58.881 30c-2.097 0-3.792-.533-5.085-1.598-1.286-1.066-1.928-2.58-1.928-4.543v-9.134L50 14.366V12.25h7.266ZM68.749 27.645l1.687-.361V19.22l-1.868-.36v-2.116h5.145l.157 1.863a4.764 4.764 0 0 1 1.603-1.55c.634-.369 1.345-.553 2.132-.553 1.318 0 2.346.413 3.085 1.238.74.825 1.109 2.12 1.109 3.882v5.66l1.686.36v2.104h-6.723v-2.104l1.506-.36v-5.648c0-.874-.177-1.49-.53-1.851-.354-.369-.888-.553-1.603-.553-.466 0-.883.096-1.253.289-.37.184-.679.448-.928.793v6.97l1.422.36v2.104H68.75v-2.104ZM84.498 27.645l1.699-.361V19.22l-1.88-.36v-2.116h5.398v10.54l1.687.36v2.104h-6.904v-2.104Zm5.217-14.013h-3.518V11h3.518v2.632ZM98.09 18.86l-1.23.228 1.724 5.816.228 1.226h.073l.253-1.226 1.699-5.804-1.253-.24v-2.116h5.916v2.116l-1.133.18-3.844 10.708h-3.361L93.306 19.04l-1.133-.18v-2.116h5.916v2.116ZM112.705 30c-1.879 0-3.381-.6-4.506-1.803-1.125-1.201-1.687-2.728-1.687-4.578v-.481c0-1.931.53-3.521 1.591-4.771 1.068-1.25 2.498-1.87 4.289-1.863 1.759 0 3.125.529 4.097 1.586.972 1.058 1.458 2.488 1.458 4.29v1.912h-7.784l-.024.072c.064.857.349 1.562.855 2.115.515.553 1.209.829 2.085.829.779 0 1.426-.076 1.94-.228a9.27 9.27 0 0 0 1.687-.745l.952 2.163c-.538.424-1.237.78-2.097 1.07-.851.288-1.803.432-2.856.432Zm-.313-10.792c-.65 0-1.165.248-1.542.745-.378.497-.611 1.15-.699 1.96l.036.06h4.314v-.313c0-.745-.177-1.338-.53-1.779-.346-.449-.872-.673-1.579-.673ZM119.887 27.645l1.687-.361V19.22l-1.868-.36v-2.116h5.145l.157 1.9c.305-.674.699-1.198 1.181-1.575a2.643 2.643 0 0 1 1.675-.565c.184 0 .377.016.578.048.209.024.382.056.518.096l-.373 3.197-1.446-.036c-.514 0-.94.1-1.277.3-.338.2-.595.485-.772.854v6.321l1.687.36v2.104h-6.892v-2.104ZM140.648 21.215h-2.361l-.374-1.622a3.065 3.065 0 0 0-.916-.481 3.583 3.583 0 0 0-1.205-.192c-.618 0-1.108.14-1.47.42-.361.273-.542.617-.542 1.034 0 .392.173.72.518.985.346.257 1.036.485 2.073.685 1.614.32 2.811.793 3.59 1.418.78.617 1.169 1.47 1.169 2.56 0 1.17-.506 2.127-1.518 2.872-1.004.738-2.33 1.106-3.976 1.106-1.004 0-1.928-.144-2.772-.433a7.187 7.187 0 0 1-2.229-1.262l-.036-2.92h2.458l.482 1.695c.209.176.494.308.856.396.361.08.739.12 1.132.12.715 0 1.257-.128 1.627-.384.377-.256.566-.605.566-1.046 0-.384-.189-.717-.566-.997-.378-.28-1.073-.529-2.085-.745-1.534-.313-2.695-.773-3.482-1.382-.779-.617-1.169-1.454-1.169-2.512 0-1.09.45-2.027 1.35-2.812.899-.793 2.181-1.19 3.844-1.19 1.012 0 1.968.136 2.867.409.908.272 1.619.62 2.133 1.045l.036 3.233ZM151.011 29.748a6.374 6.374 0 0 1-.253-.661 5.353 5.353 0 0 1-.169-.697c-.418.48-.928.869-1.53 1.165-.595.297-1.277.445-2.049.445-1.277 0-2.293-.345-3.048-1.034-.747-.697-1.121-1.642-1.121-2.836 0-1.217.49-2.159 1.47-2.824s2.418-.997 4.314-.997h1.795v-1.274c0-.625-.18-1.11-.542-1.454-.361-.345-.896-.517-1.602-.517-.402 0-.76.048-1.073.144a2.698 2.698 0 0 0-.759.325l-.229 1.394h-2.651l.012-2.885a9.934 9.934 0 0 1 2.205-1.093 8.088 8.088 0 0 1 2.723-.445c1.615 0 2.924.397 3.929 1.19 1.012.785 1.518 1.907 1.518 3.365V26.996c.008.176.024.344.048.504l1.072.145v2.103h-4.06Zm-3.049-2.344c.53 0 1.012-.112 1.446-.336.434-.233.771-.521 1.012-.866V24.22h-1.795c-.747 0-1.313.177-1.699.53-.386.344-.578.76-.578 1.25 0 .44.14.784.421 1.033.29.248.687.372 1.193.372ZM155.903 13.115V11h5.398v16.284l1.699.36v2.104h-6.916v-2.104l1.699-.36V13.476l-1.88-.36Z" fill="#4592FF"/></svg>