<svg width="113" height="19" fill="none" xmlns="http://www.w3.org/2000/svg"><path d="M7.266 1.25v2.115l-1.88.36v9.134c0 1.154.31 2.019.928 2.596.627.569 1.482.853 2.566.853 1.101 0 1.964-.284 2.591-.853.627-.57.94-1.434.94-2.596V3.725l-1.868-.36V1.25h7.266v2.115l-1.88.36v9.134c0 1.963-.65 3.477-1.952 4.543C12.684 18.467 10.985 19 8.88 19c-2.096 0-3.791-.533-5.084-1.598-1.286-1.066-1.928-2.58-1.928-4.543V3.725L0 3.365V1.25h7.266ZM18.749 16.645l1.687-.361V8.22l-1.868-.36V5.744h5.145l.157 1.863a4.763 4.763 0 0 1 1.603-1.55c.634-.369 1.345-.553 2.132-.553 1.318 0 2.346.413 3.085 1.238.74.825 1.109 2.12 1.109 3.882v5.66l1.687.36v2.104h-6.724v-2.104l1.506-.36v-5.648c0-.874-.177-1.49-.53-1.851-.354-.369-.888-.553-1.603-.553-.466 0-.883.096-1.253.289a2.52 2.52 0 0 0-.928.793v6.97l1.422.36v2.104H18.75v-2.104ZM34.498 16.645l1.699-.361V8.22l-1.88-.36V5.744h5.398v10.54l1.687.36v2.104h-6.904v-2.104Zm5.217-14.013h-3.518V0h3.518v2.632ZM48.09 7.86l-1.23.228 1.724 5.817.228 1.225h.073l.253-1.226L50.837 8.1l-1.253-.24V5.744H55.5V7.86l-1.133.18-3.843 10.708h-3.362L43.306 8.04l-1.133-.18V5.744h5.916V7.86ZM62.706 19c-1.88 0-3.382-.6-4.507-1.803-1.125-1.201-1.687-2.728-1.687-4.578v-.481c0-1.931.53-3.521 1.59-4.771 1.069-1.25 2.499-1.87 4.29-1.863 1.76 0 3.125.529 4.097 1.586.972 1.058 1.458 2.488 1.458 4.29v1.912h-7.784l-.024.072c.064.857.35 1.562.855 2.115.515.553 1.21.829 2.085.829.78 0 1.426-.076 1.94-.228a9.252 9.252 0 0 0 1.687-.745l.952 2.163c-.538.424-1.237.78-2.097 1.07-.851.288-1.803.432-2.856.432Zm-.314-10.792c-.65 0-1.165.248-1.542.745-.378.497-.61 1.15-.699 1.96l.036.06h4.314v-.313c0-.745-.177-1.338-.53-1.779-.346-.449-.872-.673-1.579-.673ZM69.887 16.645l1.687-.361V8.22l-1.868-.36V5.744h5.145l.157 1.9c.305-.674.699-1.199 1.18-1.575a2.643 2.643 0 0 1 1.676-.565c.184 0 .377.016.578.048.209.024.382.056.518.096l-.373 3.197-1.446-.036c-.514 0-.94.1-1.278.3-.337.2-.594.485-.77.854v6.321l1.686.36v2.104h-6.892v-2.104ZM90.648 10.215h-2.361l-.374-1.622a3.072 3.072 0 0 0-.916-.481 3.586 3.586 0 0 0-1.205-.192c-.618 0-1.108.14-1.47.42-.361.273-.542.617-.542 1.034 0 .392.173.72.518.985.346.257 1.036.485 2.073.685 1.614.32 2.811.793 3.59 1.418.78.617 1.17 1.47 1.17 2.56 0 1.17-.507 2.127-1.519 2.872-1.004.738-2.33 1.106-3.976 1.106-1.004 0-1.928-.144-2.772-.433a7.179 7.179 0 0 1-2.229-1.262l-.036-2.92h2.458l.482 1.695c.209.176.494.308.855.396.362.08.74.12 1.133.12.715 0 1.257-.128 1.627-.384.377-.256.566-.605.566-1.046 0-.384-.189-.717-.566-.997-.378-.28-1.072-.529-2.085-.745-1.534-.313-2.695-.773-3.482-1.382-.78-.617-1.169-1.454-1.169-2.512 0-1.09.45-2.027 1.35-2.812.9-.793 2.18-1.19 3.844-1.19 1.012 0 1.968.136 2.867.409.908.272 1.619.62 2.133 1.045l.036 3.233ZM101.011 18.748a6.374 6.374 0 0 1-.253-.661 5.353 5.353 0 0 1-.169-.697c-.418.48-.928.869-1.53 1.165-.595.297-1.278.445-2.049.445-1.277 0-2.293-.345-3.048-1.034-.747-.697-1.12-1.642-1.12-2.836 0-1.218.49-2.159 1.47-2.824s2.417-.997 4.313-.997h1.795v-1.274c0-.625-.18-1.11-.542-1.454-.361-.345-.896-.517-1.603-.517-.401 0-.759.048-1.072.144a2.694 2.694 0 0 0-.759.325l-.229 1.394h-2.65l.011-2.885a9.923 9.923 0 0 1 2.205-1.093 8.088 8.088 0 0 1 2.723-.445c1.615 0 2.924.397 3.929 1.19 1.012.785 1.518 1.907 1.518 3.365V15.996c.008.176.024.344.048.504l1.072.145v2.103h-4.06Zm-3.049-2.344c.53 0 1.012-.112 1.446-.336.434-.233.771-.521 1.012-.866V13.22h-1.795c-.747 0-1.313.176-1.699.528-.386.345-.578.761-.578 1.25 0 .44.14.785.421 1.034.29.248.687.372 1.193.372ZM105.903 2.115V0h5.398v16.284l1.699.36v2.104h-6.916v-2.104l1.699-.36V2.476l-1.88-.36Z" fill="#fff"/></svg>