<svg width="15" height="13" fill="none" xmlns="http://www.w3.org/2000/svg"><path fill-rule="evenodd" clip-rule="evenodd" d="M1.5 12.75A.75.75 0 0 1 .75 12V5.25a.75.75 0 0 1 .75-.75h.75a.75.75 0 0 1 .75.75V12a.75.75 0 0 1-.75.75H1.5Zm11.523-8.54c.675 0 1.227.59 1.227 1.313-.01 1.005-.034 1.559-.072 1.662-.039.104-.67 1.696-1.892 4.777-.184.46-1.696.788-2.187.788H5.79c-.675 0-1.665-.591-1.665-1.314V4.5L8.195.288l.003-.002A.939.939 0 0 1 9.525.268c.123.197.245.46.245.722v.197L9.157 4.21h3.866Z" fill="#BCBFC2"/></svg>