<svg width="15" height="13" fill="none" xmlns="http://www.w3.org/2000/svg"><path fill-rule="evenodd" clip-rule="evenodd" d="M13.5.25a.75.75 0 0 1 .75.75v6.75a.75.75 0 0 1-.75.75h-.75a.75.75 0 0 1-.75-.75V1a.75.75 0 0 1 .75-.75h.75ZM1.977 8.79C1.302 8.79.75 8.2.75 7.478c.01-1.005.034-1.559.072-1.662.039-.104.67-1.696 1.892-4.777C2.898.578 4.41.25 4.9.25H9.21c.675 0 1.665.591 1.665 1.314V8.5l-4.07 4.212-.003.002a.939.939 0 0 1-1.327.018c-.123-.197-.245-.46-.245-.722v-.197l.613-3.022H1.977Z" fill="#BCBFC2"/></svg>