<svg width="18" height="16" fill="none" xmlns="http://www.w3.org/2000/svg"><path fill-rule="evenodd" clip-rule="evenodd" d="M17.979 2.363a.088.088 0 0 0-.105-.025 7.151 7.151 0 0 1-1.687.517A3.777 3.777 0 0 0 17.504.988a.09.09 0 0 0-.03-.098.089.089 0 0 0-.101-.008 7.177 7.177 0 0 1-2.245.875A3.745 3.745 0 0 0 12.428.6c-2.066 0-3.746 1.696-3.746 3.78 0 .253.024.503.072.745A10.298 10.298 0 0 1 1.4 1.31a.09.09 0 0 0-.147.012 3.806 3.806 0 0 0-.507 1.9c0 1.16.522 2.243 1.41 2.958a3.557 3.557 0 0 1-1.307-.426.088.088 0 0 0-.088 0 .09.09 0 0 0-.045.077v.048A3.79 3.79 0 0 0 3.349 9.49c-.408.066-.83.062-1.245-.018a.09.09 0 0 0-.102.116A3.752 3.752 0 0 0 5.253 12.2a7.154 7.154 0 0 1-4.292 1.412c-.287 0-.577-.017-.861-.051a.09.09 0 0 0-.095.059.09.09 0 0 0 .036.106A10.38 10.38 0 0 0 5.694 15.4c6.568 0 10.492-5.385 10.492-10.591 0-.145-.002-.29-.008-.433a7.51 7.51 0 0 0 1.807-1.905.091.091 0 0 0-.006-.108Z" fill="#fff"/></svg>