<svg width="50" height="50" fill="none" xmlns="http://www.w3.org/2000/svg"><path fill-rule="evenodd" clip-rule="evenodd" d="M25 50c13.807 0 25-11.193 25-25S38.807 0 25 0 0 11.193 0 25s11.193 25 25 25Z" fill="#1DA1F2"/><path fill-rule="evenodd" clip-rule="evenodd" d="M33.979 19.363a.088.088 0 0 0-.105-.024 7.158 7.158 0 0 1-1.687.516 3.777 3.777 0 0 0 1.317-1.867.09.09 0 0 0-.03-.098.089.089 0 0 0-.101-.008 7.177 7.177 0 0 1-2.245.875 3.745 3.745 0 0 0-2.7-1.157c-2.066 0-3.746 1.696-3.746 3.78 0 .253.024.503.072.745A10.298 10.298 0 0 1 17.4 18.31a.09.09 0 0 0-.147.012 3.806 3.806 0 0 0-.506 1.9 3.79 3.79 0 0 0 1.41 2.958 3.556 3.556 0 0 1-1.307-.426.088.088 0 0 0-.088 0 .09.09 0 0 0-.045.077v.048a3.79 3.79 0 0 0 2.633 3.612c-.407.066-.83.062-1.245-.018a.09.09 0 0 0-.102.115 3.752 3.752 0 0 0 3.251 2.614 7.155 7.155 0 0 1-4.291 1.412c-.288 0-.578-.017-.862-.051a.09.09 0 0 0-.095.059.09.09 0 0 0 .036.106 10.38 10.38 0 0 0 5.653 1.673c6.568 0 10.493-5.385 10.493-10.591 0-.145-.003-.29-.009-.433a7.51 7.51 0 0 0 1.807-1.905.091.091 0 0 0-.006-.108Z" fill="#fff"/></svg>